<?xml version="1.0" encoding="utf-8"?>
<svg xmlns="http://www.w3.org/2000/svg" xmlns:xlink="http://www.w3.org/1999/xlink" version= "1.1" width="990px" height="1004px" viewBox="48 579 990 1004">
<rect x="48" y="579" width="990" height="1004" fill="rgb(255,255,255)"/>
<g id="layer1">
<g style="fill:rgb(35,31,32); fill-opacity:1.0; stroke-linejoin: miter">
<path d="M337.14285,1040.1946L438.44513,872.25903L539.74744,704.3236Q539.0154,829.3068,538.2834,954.29004L337.14285,1040.1946"/>
</g>
<g style="fill:rgb(35,31,32); fill-opacity:1.0; stroke-linejoin: miter">
<path d="M330.5854,1058.9862L433.99408,1015.17114L537.4028,971.356Q536.99445,1077.2708,536.5862,1183.1855L330.5854,1058.9862"/>
</g>
<g style="fill:rgb(35,31,32); fill-opacity:1.0; stroke-linejoin: miter">
<path d="M552.0964,953.65576L552.0964,953.6558Q552.9857,829.27637,553.87494,704.8968Q654.65765,875.1587,755.4403,1045.4205L552.0964,953.65576"/>
</g>
<g style="fill:rgb(35,31,32); fill-opacity:1.0; stroke-linejoin: miter">
<path d="M552.3588,969.216L552.35876,969.21606L550.1837,1182.6055Q654.7688,1122.5237,759.3539,1062.4419L552.3588,969.216"/>
</g>
<g style="fill:rgb(35,31,32); fill-opacity:1.0; stroke-linejoin: miter">
<path d="M550.29254,1225.0045L550.2925,1225.0048Q653.48456,1166.1516,756.6769,1107.2979Q652.4235,1252.3162,548.17017,1397.3345L550.29254,1225.0045"/>
</g>
<g style="fill:rgb(35,31,32); fill-opacity:1.0; stroke-linejoin: miter">
<path d="M332.14716,1103.792L332.14713,1103.792L535.93677,1225.8367Q535.3172,1311.5771,534.69763,1397.3176L332.14716,1103.792"/>
</g>
<g style="fill:rgb(35,31,32); fill-opacity:1.0; stroke-linejoin: miter">
<path d="M1283.1007,200.49413L1283.1002,200.49571L1283.0999,200.4973L1283.1007,200.49413"/>
</g>
</g>
</svg>